<svg xmlns="http://www.w3.org/2000/svg" width="370.571" height="139.584" viewBox="0 0 370.571 139.584"><g font-family="Bebas Neue" fill="#7d7976"><g aria-label="ULTRA" font-size="56"><path d="M195.722 34.936h5.551v24.8q0 6.563 2.379 9.462 2.379 2.87 7.711 2.87 5.305 0 7.684-2.87 2.378-2.899 2.378-9.461v-24.8h5.551V60.42q0 7.985-3.965 12.059-3.937 4.074-11.648 4.074-7.738 0-11.703-4.074-3.938-4.074-3.938-12.059zm41.645 0h5.523v36.176h19.88v4.648h-25.403zm17.855 0h34.536v4.649h-14.493V75.76h-5.55V39.585h-14.493zm59.254 21.684q1.778.601 3.446 2.57 1.695 1.969 3.39 5.414l5.606 11.156h-5.934l-5.223-10.472q-2.023-4.102-3.937-5.442-1.887-1.34-5.168-1.34h-6.016V75.76h-5.523V34.936h12.469q7 0 10.445 2.926 3.445 2.926 3.445 8.832 0 3.855-1.804 6.398-1.778 2.543-5.196 3.528zM300.64 39.475v14.492h6.946q3.992 0 6.015-1.832 2.051-1.86 2.051-5.441 0-3.582-2.05-5.387-2.024-1.832-6.016-1.832z"/><path d="M345.402 40.377l-7.492 20.317h15.012zm-3.117-5.44h6.262l15.558 40.823h-5.742l-3.719-10.472h-18.402l-3.719 10.472H326.7z"/></g><path d="M200.398 91.21v1.683q-.982-.47-1.854-.7-.871-.232-1.683-.232-1.41 0-2.18.547-.76.547-.76 1.556 0 .845.505 1.281.512.427 1.93.692l1.043.214q1.931.367 2.846 1.299.923.923.923 2.478 0 1.854-1.248 2.811-1.239.957-3.64.957-.906 0-1.931-.205-1.017-.205-2.11-.607v-1.777q1.05.59 2.058.889 1.009.299 1.983.299 1.478 0 2.281-.581.804-.581.804-1.658 0-.94-.581-1.47-.573-.53-1.889-.794l-1.05-.205q-1.932-.385-2.795-1.205-.863-.82-.863-2.282 0-1.692 1.188-2.666 1.196-.974 3.29-.974.897 0 1.828.162.931.163 1.905.488zm7.102 3.87q-1.265 0-2 .992-.735.982-.735 2.7 0 1.717.726 2.709.735.982 2.008.982 1.256 0 1.991-.991.735-.991.735-2.7 0-1.7-.735-2.692-.735-1-1.99-1zm0-1.333q2.05 0 3.22 1.333 1.171 1.333 1.171 3.692 0 2.35-1.17 3.691-1.17 1.333-3.222 1.333-2.059 0-3.23-1.333-1.162-1.341-1.162-3.691 0-2.359 1.162-3.692 1.171-1.333 3.23-1.333zm6.99-3.495h1.571v13.296h-1.572zm4.69 9.52v-5.794h1.572v5.734q0 1.358.53 2.042.53.675 1.59.675 1.273 0 2.008-.812.743-.812.743-2.213v-5.426h1.572v9.57h-1.572v-1.47q-.572.872-1.333 1.3-.752.418-1.752.418-1.649 0-2.503-1.025-.855-1.026-.855-3zm3.957-6.025zm14.201.599v1.47q-.666-.368-1.341-.548-.667-.188-1.35-.188-1.53 0-2.376.974-.846.966-.846 2.718 0 1.751.846 2.726.846.965 2.376.965.683 0 1.35-.18.675-.187 1.341-.555v1.453q-.658.308-1.367.461-.7.154-1.495.154-2.162 0-3.435-1.358-1.274-1.36-1.274-3.666 0-2.342 1.282-3.683 1.29-1.342 3.53-1.342.725 0 1.418.154.692.145 1.341.445zm-2.221 9.202q.47.53.7.975.23.452.23.863 0 .76-.512 1.145-.512.393-1.52.393-.394 0-.77-.052-.367-.051-.735-.153v-1.12q.29.145.607.205.316.069.718.069.504 0 .76-.205.257-.206.257-.599 0-.256-.188-.632-.18-.367-.564-.889zm8.681-8.468q-1.265 0-2 .992-.734.982-.734 2.7 0 1.717.726 2.709.735.982 2.008.982 1.256 0 1.991-.991.735-.991.735-2.7 0-1.7-.735-2.692-.735-1-1.99-1zm0-1.333q2.05 0 3.222 1.333 1.17 1.333 1.17 3.692 0 2.35-1.17 3.691-1.171 1.333-3.222 1.333-2.06 0-3.23-1.333-1.162-1.341-1.162-3.691 0-2.359 1.162-3.692 1.17-1.333 3.23-1.333zm-.034-1.905l-.487-.47q-.188-.171-.333-.248-.137-.085-.248-.085-.325 0-.479.316-.153.307-.17 1.008h-1.069q.017-1.154.453-1.777.436-.633 1.214-.633.324 0 .598.12.273.12.59.402l.486.47q.188.17.325.256.145.077.256.077.325 0 .479-.308.154-.316.17-1.017h1.069q-.017 1.154-.453 1.786-.436.624-1.213.624-.325 0-.598-.12-.274-.12-.59-.401zm15.21 6.528v.77h-7.23q.103 1.623.975 2.477.88.846 2.444.846.906 0 1.752-.222.854-.222 1.691-.666v1.486q-.845.36-1.734.547-.889.188-1.803.188-2.29 0-3.632-1.333-1.333-1.333-1.333-3.606 0-2.35 1.265-3.725 1.273-1.385 3.426-1.385 1.932 0 3.051 1.248 1.128 1.239 1.128 3.375zm-1.572-.461q-.017-1.29-.727-2.06-.7-.769-1.862-.769-1.316 0-2.111.744-.786.743-.906 2.093zm10.254-3.649v1.487q-.667-.342-1.385-.513-.717-.17-1.487-.17-1.17 0-1.76.358-.58.359-.58 1.077 0 .547.418.863.419.307 1.683.59l.539.12q1.674.358 2.375 1.016.71.65.71 1.82 0 1.333-1.06 2.11-1.051.778-2.897.778-.77 0-1.606-.154-.83-.145-1.752-.444v-1.623q.871.452 1.717.683.846.222 1.675.222 1.111 0 1.71-.376.597-.384.597-1.076 0-.641-.436-.983-.427-.342-1.888-.658l-.547-.128q-1.461-.308-2.11-.94-.65-.641-.65-1.752 0-1.35.957-2.085.957-.735 2.717-.735.872 0 1.641.129.77.128 1.419.384zm16.782 4.11v.77h-7.23q.103 1.623.975 2.477.88.846 2.444.846.906 0 1.751-.222.855-.222 1.692-.666v1.486q-.846.36-1.734.547-.889.188-1.803.188-2.29 0-3.632-1.333-1.333-1.333-1.333-3.606 0-2.35 1.265-3.725 1.273-1.385 3.426-1.385 1.931 0 3.05 1.248 1.129 1.239 1.129 3.375zm-1.572-.461q-.018-1.29-.727-2.06-.7-.769-1.863-.769-1.315 0-2.11.744-.786.743-.906 2.093zm11.604-2.094q.59-1.06 1.41-1.563.82-.505 1.93-.505 1.496 0 2.308 1.051.812 1.043.812 2.974v5.776h-1.581v-5.725q0-1.375-.487-2.042-.487-.666-1.487-.666-1.222 0-1.931.811-.71.812-.71 2.213v5.41h-1.58v-5.726q0-1.384-.487-2.042-.487-.666-1.504-.666-1.205 0-1.914.82-.71.812-.71 2.204v5.41h-1.58v-9.57h1.58v1.486q.539-.88 1.29-1.299.753-.419 1.787-.419 1.042 0 1.768.53.735.53 1.086 1.538zm18.533 7.733l-4.87-12.757h1.803l4.042 10.74 4.05-10.74h1.794l-4.862 12.757zm15.424-5.178v.77h-7.229q.103 1.623.974 2.477.88.846 2.444.846.906 0 1.752-.222.854-.222 1.692-.666v1.486q-.846.36-1.735.547-.889.188-1.803.188-2.29 0-3.632-1.333-1.333-1.333-1.333-3.606 0-2.35 1.265-3.725 1.273-1.385 3.427-1.385 1.93 0 3.05 1.248 1.128 1.239 1.128 3.375zm-1.572-.461q-.017-1.29-.727-2.06-.7-.769-1.862-.769-1.316 0-2.11.744-.787.743-.907 2.093zm12.108-.137v5.776h-1.572v-5.725q0-1.358-.53-2.033-.53-.675-1.59-.675-1.273 0-2.008.811-.734.812-.734 2.213v5.41h-1.581v-9.57h1.58v1.486q.565-.863 1.325-1.29.77-.428 1.769-.428 1.649 0 2.495 1.026.846 1.017.846 2.999zm9.451-2.342v-5.178h1.572v13.296h-1.572v-1.435q-.496.854-1.256 1.273-.752.41-1.812.41-1.735 0-2.828-1.384-1.086-1.384-1.086-3.64 0-2.256 1.086-3.64 1.093-1.385 2.828-1.385 1.06 0 1.812.42.76.41 1.256 1.264zm-5.358 3.342q0 1.734.71 2.726.717.982 1.965.982 1.247 0 1.965-.982.718-.992.718-2.726 0-1.735-.718-2.718-.718-.99-1.965-.99-1.248 0-1.966.99-.709.983-.709 2.718zm14.518-.034q-1.906 0-2.64.435-.735.436-.735 1.487 0 .838.546 1.333.556.487 1.504.487 1.308 0 2.094-.923.794-.931.794-2.47v-.35zm3.136-.65v5.46h-1.573v-1.452q-.538.871-1.341 1.29-.803.41-1.965.41-1.47 0-2.342-.82-.863-.829-.863-2.213 0-1.615 1.077-2.436 1.085-.82 3.23-.82h2.204v-.154q0-1.085-.717-1.674-.71-.599-2-.599-.82 0-1.598.197-.777.196-1.495.59v-1.453q.863-.333 1.675-.496.812-.17 1.58-.17 2.077 0 3.102 1.076 1.026 1.077 1.026 3.264zm9.348-3.828v1.487q-.667-.342-1.384-.513-.718-.17-1.487-.17-1.17 0-1.76.358-.581.359-.581 1.077 0 .547.418.863.419.307 1.684.59l.538.12q1.675.358 2.375 1.016.71.65.71 1.82 0 1.333-1.06 2.11-1.051.778-2.897.778-.769 0-1.606-.154-.829-.145-1.752-.444v-1.623q.872.452 1.718.683.846.222 1.674.222 1.111 0 1.71-.376.598-.384.598-1.076 0-.641-.436-.983-.427-.342-1.889-.658l-.546-.128q-1.462-.308-2.111-.94-.65-.641-.65-1.752 0-1.35.958-2.085.957-.735 2.717-.735.871 0 1.64.129.77.128 1.419.384z" aria-label="Soluções em Vendas" font-size="17.5"/></g><g fill-rule="evenodd"><path d="M129.031 51.716c-2.039-10.644-6.691-21.032-14.31-30.037-1.677-1.844-3.412-3.603-5.084-5.35A71.294 71.294 0 0098.26 7.531a64.436 64.436 0 00-12.986-5.216c9.935 3.22 18.176 8.416 24.765 14.875-5-2.309-10.743-3.1-17.26-2.731-8.337-6.86-18.046-11.432-28.806-12.221C69.478.617 73.241.35 75.83.434c2.029.247 4.053.587 6.062 1.034-.94-.313-2.241-.58-3.207-.803L75.498.242l-2.76-.241c-2.252-.006-6.11-.019-12.71 2.113-3.67.048-7.451.538-11.333 1.524A44.23 44.23 0 0158.957 2.47c-3.913 1.342-8.726 3.406-14.665 6.603-5.694.02-10.553 1.803-14.686 4.289 3.908-2.207 8.28-3.504 13.113-3.429-4.007 2.216-8.5 4.925-13.538 8.234-2.07-.097-4.118.356-6.154 1.457 1.607-.716 3.25-.911 4.937-.656a322.217 322.217 0 00-9.87 6.848c-.364-.166-.72-.22-1.07-.139a109.757 109.757 0 014.579-5.17c.475-.322.948-.627 1.424-.883-.397.178-.795.39-1.188.628a89.034 89.034 0 015.93-5.7c.598-.408 1.205-.81 1.837-1.19-.543.305-1.07.64-1.592.982a67.49 67.49 0 016.07-4.71c.488-.294.978-.585 1.466-.864-.325.168-.646.344-.97.514.005-.006.009-.007.016-.01-.008.003-.016.01-.027.015-.19.1-.38.195-.57.303l-3.11 2.04c-.11.085-.212.166-.321.246.244-.175.498-.347.752-.52a97.827 97.827 0 011.76-1.113 61.677 61.677 0 00-3.172 2.188 95.91 95.91 0 00-3.438 2.979 36.845 36.845 0 00-2.309 1.814c.312-.303.594-.599.92-.896-.479.425-.94.859-1.395 1.293a43.117 43.117 0 00-1.763 1.648c.312-.29.645-.58.97-.87a50.36 50.36 0 00-3.088 3.415c-.36.33-.722.688-1.08 1.074.499-.605 1.103-1.317 1.888-2.237a40.857 40.857 0 00-2.01 2.36c-.14.16-.287.296-.43.466.105-.118.214-.214.324-.322-.05.06-.096.12-.142.182.057-.074.123-.15.184-.228.326-.33.654-.652.982-.95a78.586 78.586 0 00-2.255 2.893c.79-1.017 1.636-2.065 2.523-3.124.36-.315.72-.612 1.08-.887a99.241 99.241 0 00-3.96 4.67c-.06.024-.12.041-.177.067.176-.243.36-.492.534-.726-.196.249-.383.493-.576.74-.029.015-.063.018-.093.034a62.019 62.019 0 011.758-2.489 30.16 30.16 0 00-1.88 2.559c-.017.008-.033.03-.054.04.477-.735.964-1.46 1.42-2.082.11-.127.219-.25.332-.377-.073.073-.145.135-.215.21l-.173.219-.12.15a65.853 65.853 0 00-1.29 1.917c-.134.089-.268.174-.402.3l-.207.287c-.2.404-.459.945-.595 1.376.19-.44.431-.993.686-1.44.104-.087.212-.162.318-.21a39.813 39.813 0 00-1.004 1.65c.307-.504.663-1.078 1.03-1.656.01-.001.019-.001.028-.007a116.69 116.69 0 00-1.058 1.663c.431-.641.798-1.186 1.137-1.685.013-.003.025-.008.038-.01a52.51 52.51 0 00-1.175 1.695c.426-.603.834-1.165 1.231-1.71.043-.01.084-.02.124-.02-.448.567-.89 1.12-1.355 1.73.469-.592.941-1.151 1.412-1.725.21.005.425.075.648.228-.685.498-1.36.982-2.06 1.497.78-.411 1.543-.852 2.314-1.278 1.048.956 2.246 3.458 3.755 7.44-5.335.581-8.281-.818-6.07-6.162-2.984 6.984.448 8.927 6.89 8.38.467 1.292.957 2.69 1.484 4.224a300.72 300.72 0 006.847 18.06c-8.257-.402-14.1-2.162-17.508-5.286-1.165-9.04-.982-16.881.433-21.988.19-.369.381-.747.548-1.062.411-.763.842-1.535 1.307-2.328-.153.257-.302.513-.453.768.256-.453.42-.721.453-.768a60.23 60.23 0 00-1.539 2.36c.079-.226.156-.455.24-.666.387-.53.804-1.079 1.299-1.694-.501.634-.908 1.156-1.285 1.653.068-.175.138-.344.211-.505.32-.417.708-.86 1.074-1.148-.334.234-.762.594-.986.933l-.372.596c-.089.177-.175.375-.26.568-.569.78-1.056 1.52-1.577 2.474.442-.778.942-1.553 1.542-2.39-.146.334-.288.686-.42 1.066a63.3 63.3 0 00-3.796 7.459c.29-.888.55-1.62.748-2.15.8-1.77 1.388-2.996 1.926-3.985-.862 1.516-1.557 3.077-2.552 5.326a64.3 64.3 0 00-1.113 3.246 60.764 60.764 0 00-1.956 6.06c.03.561.096 1.524.222 2.792.9-4.193 2.201-8.12 3.523-11.463-2.19 6.416-2.269 12.382 1.521 16.79.744 8.065 2.484 17.025 5.453 25.777 1.53 2.073 3.276 3.985 5.269 5.642-4.443-9.824-7.378-20.265-8.922-29.702 3.661 2.966 9.634 4.967 18.65 5.546 5.367 12.235 10.894 22.018 16.46 29.71a75.727 75.727 0 003.75-.618c-5.662-7.464-11.345-16.992-16.941-28.947 7.557.186 17.01-.529 28.692-2.349.572.877 1.153 1.76 1.738 2.652 4.156 6.34 8.733 13.316 13.597 19.697 1.258-.568 2.43-1.12 3.507-1.638-4.083-5.494-8.017-11.421-11.725-17.011-.988-1.488-1.955-2.945-2.917-4.388.83-.143 1.634-.272 2.483-.42a3360.9 3360.9 0 014.933-.882l-.005-.008-.054-.087-.02-.034-.016-.025-.01-.02-.009-.01v-.003l.005-.003h.001l.011-.002h.01l.006-.002.02-.005.013-.001.01-.002.03-.006.013-.002.02-.004.039-.005.011-.004.031-.004.047-.008.008-.001.043-.008.057-.012h.001l.06-.01.059-.009.008-.004.126-.02.021-.005.081-.012.05-.008.037-.006.09-.016.042-.007.054-.01.1-.015.032-.007.075-.012.111-.018.019-.003.097-.016.122-.021h.004l.122-.019.119-.021.014-.002.137-.022.106-.017.038-.004.148-.024.092-.015.061-.01.16-.024.075-.014.09-.014.17-.026.055-.009.12-.02.182-.026.033-.007.154-.021.191-.03h.01l.19-.031.184-.027.02-.004.21-.032.163-.025.052-.008.222-.033.14-.021.087-.011.234-.035.114-.018.125-.019.245-.034.085-.014.166-.025.258-.037.053-.005.21-.03.48-.071.066-.01.26-.037.023-.002.288-.04.23-.034.065-.008.3-.042.197-.03.11-.015.315-.041.16-.023.16-.024.327-.044.12-.016.214-.029.338-.048.077-.009.27-.037c3.21-.514 6.335-.974 9.344-1.35l.088.141.054-.007.053-.008.055-.006.053-.007.054-.005.053-.007.055-.007.054-.006.055-.007.054-.005.053-.008.05-.005.005-.002.054-.006.056-.007.054-.007.055-.005.056-.007.054-.006.054-.008.056-.008.055-.007.056-.005.055-.007.056-.006.055-.008.055-.007.056-.007.056-.005.056-.007.025-.004.032-.002.056-.008.055-.007.056-.007.057-.008.056-.005.057-.006.056-.007.057-.008.057-.007.056-.006.057-.006.057-.008.057-.006.058-.007.057-.008.057-.007.057-.005.058-.008.057-.006.059-.007.057-.008.058-.007.057-.008.059-.006.058-.006.059-.006.058-.007.059-.008.057-.008.06-.007.058-.006.058-.005.059-.008.06-.007-.073-.122c1.518-.158 3.002-.289 4.446-.39h.016l.163-.018.18-.023.18-.018.182-.023.182-.018.182-.022.088-.009.095-.012.185-.02.185-.022.184-.02.186-.022.188-.022.162-.018h.025l.187-.023.189-.022.19-.02.19-.022.19-.02.192-.023.05-.006.142-.016.192-.022.194-.02.194-.022.195-.023.196-.02.128-.014.068-.008.197-.023.198-.022.199-.02.198-.023.2-.022.201-.023.008-.001.193-.02.202-.023.203-.022.203-.023.203-.021.205-.021.09-.011.116-.013.206-.023.207-.021.207-.023.209-.022.208-.024.174-.018.036-.005.21-.022.211-.022.213-.024.425-.046.214-.023.046-.004.169-.02.215-.022.217-.024.216-.021.218-.024.218-.023.133-.016.086-.008.22-.024.22-.024.222-.024.221-.022.222-.024.224-.024.134-.012.134-.014.133-.016.133-.014.131-.013.133-.013.131-.016.133-.014.13-.011.132-.016.089-.008.041-.006.132-.012.128-.014.13-.015.13-.012.13-.013.641-.067.045-.005.083-.01.254-.024.126-.015.126-.013.126-.012.125-.015.125-.01.126-.014.124-.014.124-.012h.004l.12-.014.125-.013.123-.01.123-.015.123-.01.122-.015.123-.011.122-.015.12-.01.123-.014.085-.007.036-.006.12-.01.122-.014.12-.01.119-.015.12-.01.119-.014.12-.01.118-.014.12-.01.116-.014.045-.002.073-.008.118-.014.117-.01.117-.014.117-.01.116-.01.117-.014.115-.01.116-.014.114-.01.116-.013c-1.792-.925-3.883-1.615-6.268-2.088-4.815-11.911-12.07-23.445-21.254-32.219 6.392-.127 12.24.796 17.138 3.264 7.524 8.813 12.348 19.481 14.495 30.64l.542-.055zM20.118 21.544a60.653 60.653 0 013.565-3.848 51.395 51.395 0 012.39-1.917 80.603 80.603 0 00-4.942 4.967c-.34.242-.677.506-1.013.798zm74.028-3.56c9.23 8.623 16.745 19.975 21.908 31.805-5.355-.779-12.044-.617-20.057.273-6.622-10.594-14.388-20.822-23.23-28.31 7.347-1.932 14.62-3.372 21.38-3.768zm-1.935 32.533c-7.038.922-14.988 2.32-23.886 4.083-1.039.206-2.046.395-3.057.586C58.45 45.013 52.342 36.272 46.68 29.842l2.031-.674c6.586-2.186 13.564-4.502 20.548-6.465 7.047 6.354 14.693 15.41 22.952 27.814zM54.959 5.54c2.874-1.235 5.42-2.173 7.702-2.899 10.12.918 19.467 5.374 27.653 12.004-6.28.607-13.238 2.17-20.913 4.409-8.422-6.311-15.755-9.174-22.115-9.818 2.51-1.31 5.052-2.575 7.673-3.696zm-9.392 4.588c6.141.772 12.988 3.768 20.563 9.906-6.485 1.99-13.45 4.397-20.924 7.06-.26.09-.52.186-.779.275-4.599-4.807-8.912-7.933-13.09-8.898 4.685-2.874 9.387-5.731 14.23-8.343zM23.26 33.804c-1.872-4.192-3.37-6.759-4.723-7.727 3.802-2.13 7.535-4.38 11.252-6.66 3.577 1.21 7.381 4.35 11.55 9.047-6.383 2.248-13 4.448-18.08 5.34zm4.893 12.009c-1.47-3.783-2.759-7.026-3.913-9.752 5.36-.805 12.245-2.89 19.182-5.15 5.244 6.356 11.07 14.932 17.722 25.018-10.937 1.9-20.142 2.813-27.624 2.756a287.654 287.654 0 01-5.367-12.872zM43.157 92.77c-7.39-.77-13.435-2.247-18.345-4.259 4.098 2.69 9.1 4.354 15.21 4.354 1.039 0 2.084-.032 3.135-.095zM12.632 32.718c-1.217 4.495-1.725 11.149-1.287 18.875-2.997-4.174-2.722-10.178.873-18.02.146-.308.276-.566.414-.855zm12.45-16.387c1.585-1.411 3.343-2.815 5.486-4.452a56.432 56.432 0 00-5.486 4.452zm12.662-8.743a40.76 40.76 0 00-2.194 1.183c4.492-2.36 8.88-4.047 13.145-5.133-3.586.843-7.242 2.128-10.951 3.95zM21.923 19.272c-.094.086-.191.172-.283.259l-.683.718c-.129.154-.224.266-.344.405.207-.228.457-.499.7-.765.202-.207.404-.416.61-.617z" fill="#7d7976"/><path d="M40.022 92.865c23.28 0 50.245-15.678 50.245-15.678l3.684 3.371s-33.596 26.078-59.234 26.078C9.079 106.636.532 86.561.532 69.57c0-16.993 5.797-22.993 5.797-22.993s1.423 46.288 33.693 46.288z" fill="#b1b3b4"/><path d="M91.357 80.063s-.74-1.024-6.633-8.938c-5.894-7.91-8.988-13.036-8.988-13.036s10.166-1.905 40.669-5.128c30.502-3.227 36.984-3.08 36.984-3.08s.884 4.398-6.19 33.99c-7.073 29.594-12.081 37.801-12.081 37.801s-1.901-.8-5.271-3.451c-3.376-2.652-5.718-4.789-5.718-4.789s-26.136 26.152-57.131 26.152c-42.567 0-67.87-42.276-66.975-64.569.33-8.18.956-11.302.956-11.302S.56 66.789.93 73.907c.337 6.493 4.934 28.664 32.089 28.664 27.153 0 58.339-22.508 58.339-22.508z" fill="#7d7976"/></g></svg>